<svg xmlns="http://www.w3.org/2000/svg" xmlns:xlink="http://www.w3.org/1999/xlink" width="500" zoomAndPan="magnify" viewBox="0 0 375 123.750003" height="165" preserveAspectRatio="xMidYMid meet" version="1.0"><defs><g/><clipPath id="b285f3d0aa"><path d="M 17 85 L 353 85 L 353 85.164062 L 17 85.164062 Z M 267.777344 85.164062 L 353 85.164062 L 353 95 L 267.777344 95 Z M 17 85.164062 L 232.621094 85.164062 L 232.621094 95 L 17 95 Z M 17 85.164062 " clip-rule="nonzero"/></clipPath><clipPath id="cb0bc21497"><path d="M 107.417969 38.175781 L 142.667969 38.175781 L 142.667969 73.425781 L 107.417969 73.425781 Z M 107.417969 38.175781 " clip-rule="nonzero"/></clipPath><clipPath id="7bf6d3bbac"><path d="M 125.042969 38.175781 C 115.308594 38.175781 107.417969 46.066406 107.417969 55.800781 C 107.417969 65.535156 115.308594 73.425781 125.042969 73.425781 C 134.777344 73.425781 142.667969 65.535156 142.667969 55.800781 C 142.667969 46.066406 134.777344 38.175781 125.042969 38.175781 Z M 125.042969 38.175781 " clip-rule="nonzero"/></clipPath><clipPath id="ff01a0808d"><path d="M 100 38 L 146 38 L 146 76 L 100 76 Z M 100 38 " clip-rule="nonzero"/></clipPath><clipPath id="b7b0de7cff"><path d="M 111.15625 32.847656 L 146.980469 46.035156 L 134.308594 80.453125 L 98.484375 67.261719 Z M 111.15625 32.847656 " clip-rule="nonzero"/></clipPath><clipPath id="13a39eb8fa"><path d="M 147.089844 46.074219 L 111.269531 32.886719 L 98.597656 67.304688 L 134.417969 80.492188 Z M 147.089844 46.074219 " clip-rule="nonzero"/></clipPath></defs><g clip-path="url(#b285f3d0aa)"><path fill="#bc1823" d="M 17.878906 85.542969 L 352.539062 85.542969 L 352.539062 94.578125 L 17.878906 94.578125 Z M 17.878906 85.542969 " fill-opacity="1" fill-rule="nonzero"/></g><g fill="#bc1823" fill-opacity="1"><g transform="translate(17.878222, 80.272012)"><g><path d="M 8.390625 -47.84375 L 8.390625 -65.640625 L 24.890625 -65.640625 L 24.890625 -47.84375 L 34.96875 -47.84375 L 34.96875 -35.25 L 24.890625 -35.25 L 24.890625 -20.046875 C 24.890625 -15.628906 26.132812 -13.421875 28.625 -13.421875 C 29.25 -13.421875 29.898438 -13.546875 30.578125 -13.796875 C 31.265625 -14.046875 31.796875 -14.296875 32.171875 -14.546875 L 32.734375 -14.921875 L 36.828125 -1.578125 C 33.285156 0.410156 29.25 1.40625 24.71875 1.40625 C 21.601562 1.40625 18.925781 0.863281 16.6875 -0.21875 C 14.445312 -1.3125 12.753906 -2.773438 11.609375 -4.609375 C 10.460938 -6.441406 9.640625 -8.367188 9.140625 -10.390625 C 8.640625 -12.410156 8.390625 -14.570312 8.390625 -16.875 L 8.390625 -35.25 L 1.484375 -35.25 L 1.484375 -47.84375 Z M 8.390625 -47.84375 "/></g></g></g><g fill="#bc1823" fill-opacity="1"><g transform="translate(50.140291, 80.272012)"><g><path d="M 5.59375 0 L 5.59375 -47.84375 L 22.09375 -47.84375 L 22.09375 -40.9375 L 22.28125 -40.9375 C 22.40625 -41.1875 22.609375 -41.492188 22.890625 -41.859375 C 23.171875 -42.234375 23.773438 -42.882812 24.703125 -43.8125 C 25.640625 -44.75 26.632812 -45.59375 27.6875 -46.34375 C 28.75 -47.09375 30.117188 -47.757812 31.796875 -48.34375 C 33.472656 -48.9375 35.179688 -49.234375 36.921875 -49.234375 C 38.722656 -49.234375 40.492188 -48.984375 42.234375 -48.484375 C 43.984375 -47.992188 45.257812 -47.5 46.0625 -47 L 47.375 -46.25 L 40.46875 -32.265625 C 38.414062 -34.003906 35.554688 -34.875 31.890625 -34.875 C 29.898438 -34.875 28.191406 -34.4375 26.765625 -33.5625 C 25.335938 -32.695312 24.328125 -31.640625 23.734375 -30.390625 C 23.140625 -29.148438 22.71875 -28.09375 22.46875 -27.21875 C 22.21875 -26.351562 22.09375 -25.671875 22.09375 -25.171875 L 22.09375 0 Z M 5.59375 0 "/></g></g></g><g fill="#bc1823" fill-opacity="1"><g transform="translate(92.006496, 80.272012)"><g><path d="M 10.109375 -5.6875 C 4.796875 -10.414062 2.140625 -16.476562 2.140625 -23.875 C 2.140625 -31.269531 4.90625 -37.34375 10.4375 -42.09375 C 15.976562 -46.851562 22.816406 -49.234375 30.953125 -49.234375 C 38.972656 -49.234375 45.734375 -46.835938 51.234375 -42.046875 C 56.742188 -37.265625 59.5 -31.207031 59.5 -23.875 C 59.5 -16.539062 56.804688 -10.492188 51.421875 -5.734375 C 46.046875 -0.972656 39.222656 1.40625 30.953125 1.40625 C 22.378906 1.40625 15.429688 -0.957031 10.109375 -5.6875 Z M 22.890625 -31.984375 C 20.742188 -29.867188 19.671875 -27.164062 19.671875 -23.875 C 19.671875 -20.582031 20.695312 -17.894531 22.75 -15.8125 C 24.800781 -13.726562 27.503906 -12.6875 30.859375 -12.6875 C 34.097656 -12.6875 36.757812 -13.738281 38.84375 -15.84375 C 40.925781 -17.957031 41.96875 -20.632812 41.96875 -23.875 C 41.96875 -27.164062 40.894531 -29.867188 38.75 -31.984375 C 36.601562 -34.097656 33.972656 -35.15625 30.859375 -35.15625 C 27.691406 -35.15625 25.035156 -34.097656 22.890625 -31.984375 Z M 22.890625 -31.984375 "/></g></g></g><g fill="#bc1823" fill-opacity="1"><g transform="translate(149.071479, 80.272012)"><g><path d="M 5.59375 0 L 5.59375 -47.84375 L 22.09375 -47.84375 L 22.09375 -42.796875 L 22.28125 -42.796875 C 26.570312 -47.085938 31.144531 -49.234375 36 -49.234375 C 39.476562 -49.234375 42.738281 -48.519531 45.78125 -47.09375 C 48.832031 -45.664062 51.132812 -43.457031 52.6875 -40.46875 C 57.53125 -46.3125 62.8125 -49.234375 68.53125 -49.234375 C 73.632812 -49.234375 78.019531 -47.800781 81.6875 -44.9375 C 85.351562 -42.082031 87.1875 -37.609375 87.1875 -31.515625 L 87.1875 0 L 70.6875 0 L 70.6875 -27.046875 C 70.6875 -29.585938 69.984375 -31.710938 68.578125 -33.421875 C 67.179688 -35.140625 65.085938 -36 62.296875 -36 C 59.867188 -36 58.015625 -35.265625 56.734375 -33.796875 C 55.460938 -32.335938 54.765625 -30.582031 54.640625 -28.53125 L 54.640625 0 L 38.140625 0 L 38.140625 -27.046875 C 38.140625 -29.585938 37.4375 -31.710938 36.03125 -33.421875 C 34.632812 -35.140625 32.539062 -36 29.75 -36 C 27.195312 -36 25.28125 -35.203125 24 -33.609375 C 22.726562 -32.023438 22.09375 -30.144531 22.09375 -27.96875 L 22.09375 0 Z M 5.59375 0 "/></g></g></g><g fill="#bc1823" fill-opacity="1"><g transform="translate(236.347497, 80.272012)"><g><path d="M 54.828125 -41.90625 C 59.304688 -37.03125 61.546875 -31.046875 61.546875 -23.953125 C 61.546875 -16.867188 59.304688 -10.867188 54.828125 -5.953125 C 50.347656 -1.046875 44.660156 1.40625 37.765625 1.40625 C 31.421875 1.40625 26.195312 -0.582031 22.09375 -4.5625 L 22.09375 24.25 L 5.59375 24.25 L 5.59375 -47.84375 L 21.90625 -47.84375 L 21.90625 -42.421875 L 22.09375 -42.421875 C 26.195312 -46.960938 31.421875 -49.234375 37.765625 -49.234375 C 44.660156 -49.234375 50.347656 -46.789062 54.828125 -41.90625 Z M 40.796875 -15.84375 C 42.941406 -17.957031 44.015625 -20.660156 44.015625 -23.953125 C 44.015625 -27.253906 42.988281 -29.945312 40.9375 -32.03125 C 38.882812 -34.113281 36.179688 -35.15625 32.828125 -35.15625 C 29.585938 -35.15625 26.925781 -34.097656 24.84375 -31.984375 C 22.769531 -29.867188 21.734375 -27.195312 21.734375 -23.96875 C 21.734375 -20.664062 22.800781 -17.957031 24.9375 -15.84375 C 27.082031 -13.738281 29.710938 -12.6875 32.828125 -12.6875 C 35.992188 -12.6875 38.648438 -13.738281 40.796875 -15.84375 Z M 40.796875 -15.84375 "/></g></g></g><g fill="#bc1823" fill-opacity="1"><g transform="translate(295.463831, 80.272012)"><g><path d="M 10.109375 -5.6875 C 4.796875 -10.414062 2.140625 -16.476562 2.140625 -23.875 C 2.140625 -31.269531 4.90625 -37.34375 10.4375 -42.09375 C 15.976562 -46.851562 22.816406 -49.234375 30.953125 -49.234375 C 38.972656 -49.234375 45.734375 -46.835938 51.234375 -42.046875 C 56.742188 -37.265625 59.5 -31.207031 59.5 -23.875 C 59.5 -16.539062 56.804688 -10.492188 51.421875 -5.734375 C 46.046875 -0.972656 39.222656 1.40625 30.953125 1.40625 C 22.378906 1.40625 15.429688 -0.957031 10.109375 -5.6875 Z M 22.890625 -31.984375 C 20.742188 -29.867188 19.671875 -27.164062 19.671875 -23.875 C 19.671875 -20.582031 20.695312 -17.894531 22.75 -15.8125 C 24.800781 -13.726562 27.503906 -12.6875 30.859375 -12.6875 C 34.097656 -12.6875 36.757812 -13.738281 38.84375 -15.84375 C 40.925781 -17.957031 41.96875 -20.632812 41.96875 -23.875 C 41.96875 -27.164062 40.894531 -29.867188 38.75 -31.984375 C 36.601562 -34.097656 33.972656 -35.15625 30.859375 -35.15625 C 27.691406 -35.15625 25.035156 -34.097656 22.890625 -31.984375 Z M 22.890625 -31.984375 "/></g></g></g><g clip-path="url(#cb0bc21497)"><g clip-path="url(#7bf6d3bbac)"><path fill="#bc1823" d="M 107.417969 38.175781 L 142.667969 38.175781 L 142.667969 73.425781 L 107.417969 73.425781 Z M 107.417969 38.175781 " fill-opacity="1" fill-rule="nonzero"/></g></g><g clip-path="url(#ff01a0808d)"><g clip-path="url(#b7b0de7cff)"><g clip-path="url(#13a39eb8fa)"><path fill="#fff9f3" d="M 117.839844 62.75 C 122.570312 61.464844 126.644531 59.582031 130.6875 56.8125 C 132.882812 55.308594 135.8125 53.003906 137.105469 50.613281 C 137.714844 49.488281 138.007812 48.171875 137.082031 47.125 C 139.195312 47.460938 140.40625 48.792969 140.316406 50.964844 C 140.230469 53.089844 138.78125 55.585938 136.335938 58.019531 C 131.171875 63.164062 122.359375 67.234375 115.09375 67.828125 C 112.554688 68.039062 109.070312 67.898438 107.015625 66.179688 C 105.394531 64.824219 105.242188 63.085938 106.320312 61.328125 C 106.511719 62.714844 107.707031 63.347656 108.957031 63.613281 C 111.617188 64.175781 115.269531 63.445312 117.839844 62.75 Z M 115.472656 55.0625 C 119.105469 54.289062 123.429688 52.292969 126.375 50.027344 C 127.835938 48.90625 128.988281 47.703125 129.78125 46.476562 C 130.261719 45.734375 130.386719 44.738281 129.914062 43.949219 C 131.140625 44.394531 132 45.222656 131.945312 46.523438 C 131.886719 47.964844 130.898438 49.664062 129.226562 51.332031 C 125.679688 54.863281 119.609375 57.667969 114.613281 58.078125 C 112.261719 58.269531 110.328125 57.921875 109.191406 57.03125 C 108.167969 56.226562 108.09375 55.035156 108.550781 53.816406 C 108.691406 54.667969 109.675781 55.234375 110.558594 55.355469 C 112.007812 55.546875 113.667969 55.445312 115.472656 55.0625 Z M 120.855469 46.382812 C 121.324219 46.699219 121.699219 46.949219 121.847656 47.335938 C 122.398438 48.75 117.078125 51.210938 116.355469 49.875 C 116.160156 49.507812 116.214844 49.058594 116.277344 48.496094 C 116.382812 47.5625 116.472656 46.976562 115.820312 46.175781 C 115.480469 45.753906 114.988281 45.367188 114.382812 44.992188 C 109.582031 42.03125 114.492188 38.378906 117.441406 38.832031 C 118.792969 39.039062 119.804688 40.152344 119.417969 42.667969 C 119.308594 43.371094 119.285156 44 119.382812 44.53125 C 119.570312 45.542969 120.074219 45.859375 120.855469 46.382812 Z M 120.148438 44.785156 C 121.878906 44.167969 123.558594 43.777344 125.082031 43.597656 C 126.34375 43.453125 129.269531 43.023438 129.527344 44.828125 C 129.585938 45.265625 129.457031 45.742188 129.21875 46.113281 C 128.363281 47.4375 127.164062 48.578125 125.917969 49.53125 C 122.039062 52.265625 119.367188 53.265625 115.335938 54.402344 C 113.601562 54.773438 112.019531 54.871094 110.648438 54.6875 C 109.648438 54.554688 108.992188 53.820312 109.128906 52.792969 C 109.21875 52.101562 110.882812 50.40625 111.414062 49.910156 C 112.539062 48.863281 113.929688 47.839844 115.515625 46.921875 C 115.761719 47.398438 115.679688 47.824219 115.609375 48.417969 C 115.53125 49.097656 115.46875 49.640625 115.765625 50.191406 C 116.898438 52.292969 123.34375 49.320312 122.476562 47.089844 C 122.25 46.511719 121.796875 46.203125 121.226562 45.824219 C 120.730469 45.488281 120.351562 45.277344 120.148438 44.785156 Z M 128.230469 72.683594 C 128.828125 72.558594 129.410156 72.390625 129.964844 72.175781 C 129.980469 72.167969 129.992188 72.160156 130.007812 72.152344 C 130.53125 71.871094 131.035156 71.539062 131.511719 71.167969 L 131.585938 71.132812 C 131.851562 71.8125 132.203125 73.003906 132.195312 74.046875 C 132.183594 75.71875 131.261719 76.140625 129.980469 75.066406 C 129.183594 74.402344 128.503906 73.359375 128.160156 72.71875 Z M 137.714844 57.546875 C 137.492188 59.757812 136.777344 62.316406 135.636719 64.6875 C 134.25 67.578125 132.234375 70.1875 129.703125 71.558594 C 127.019531 72.59375 123.726562 72.441406 120.625 71.621094 C 118.078125 70.949219 115.667969 69.835938 113.839844 68.570312 C 121.90625 68.382812 132.339844 63.558594 137.714844 57.546875 Z M 144 50.664062 C 144.433594 46.070312 139.402344 44.316406 135.78125 43.53125 C 137.9375 43.492188 140.339844 43.75 142.234375 44.394531 C 145.824219 45.613281 146.476562 47.742188 144 50.664062 Z M 101.5625 62.707031 C 101.132812 67.300781 106.164062 69.050781 109.78125 69.839844 C 107.628906 69.878906 105.226562 69.621094 103.328125 68.976562 C 99.738281 67.757812 99.085938 65.628906 101.5625 62.707031 Z M 117.660156 62.097656 C 115.214844 62.761719 111.632812 63.492188 109.097656 62.953125 C 107.664062 62.648438 106.128906 61.433594 107.347656 59.960938 C 107.988281 59.175781 108.730469 58.421875 109.371094 57.953125 C 110.65625 58.660156 112.507812 58.925781 114.667969 58.75 C 119.824219 58.324219 126.035156 55.457031 129.699219 51.804688 C 131.234375 50.28125 132.230469 48.695312 132.527344 47.257812 C 133.300781 47.074219 134.355469 47.003906 135.367188 47.019531 C 135.910156 47.03125 136.007812 47.035156 136.433594 47.429688 C 137.320312 48.253906 137.023438 49.355469 136.511719 50.296875 C 135.277344 52.574219 132.398438 54.828125 130.308594 56.257812 C 126.296875 59.003906 122.355469 60.824219 117.660156 62.097656 Z M 117.660156 62.097656 " fill-opacity="1" fill-rule="nonzero"/></g></g></g><g fill="#2c3892" fill-opacity="1"><g transform="translate(84.019318, 117.92893)"><g><path d="M 2.109375 0.125 C 1.753906 0.125 1.414062 0.0664062 1.09375 -0.046875 C 0.769531 -0.171875 0.519531 -0.347656 0.34375 -0.578125 C 0.269531 -0.660156 0.234375 -0.75 0.234375 -0.84375 C 0.234375 -0.945312 0.273438 -1.035156 0.359375 -1.109375 C 0.453125 -1.191406 0.550781 -1.234375 0.65625 -1.234375 C 0.707031 -1.234375 0.757812 -1.222656 0.8125 -1.203125 C 0.875 -1.179688 0.921875 -1.144531 0.953125 -1.09375 C 1.078125 -0.945312 1.25 -0.828125 1.46875 -0.734375 C 1.695312 -0.648438 1.929688 -0.609375 2.171875 -0.609375 C 2.453125 -0.609375 2.679688 -0.675781 2.859375 -0.8125 C 3.035156 -0.945312 3.125 -1.125 3.125 -1.34375 C 3.125 -1.601562 3.019531 -1.785156 2.8125 -1.890625 C 2.601562 -2.003906 2.359375 -2.082031 2.078125 -2.125 C 1.816406 -2.175781 1.550781 -2.25 1.28125 -2.34375 C 1.019531 -2.4375 0.800781 -2.570312 0.625 -2.75 C 0.445312 -2.9375 0.359375 -3.1875 0.359375 -3.5 C 0.359375 -3.914062 0.519531 -4.25 0.84375 -4.5 C 1.175781 -4.75 1.613281 -4.875 2.15625 -4.875 C 2.445312 -4.875 2.710938 -4.832031 2.953125 -4.75 C 3.191406 -4.664062 3.390625 -4.550781 3.546875 -4.40625 C 3.648438 -4.320312 3.703125 -4.222656 3.703125 -4.109375 C 3.703125 -4.015625 3.664062 -3.929688 3.59375 -3.859375 C 3.519531 -3.785156 3.4375 -3.75 3.34375 -3.75 C 3.238281 -3.75 3.144531 -3.78125 3.0625 -3.84375 C 2.800781 -4.050781 2.484375 -4.15625 2.109375 -4.15625 C 1.460938 -4.15625 1.140625 -3.9375 1.140625 -3.5 C 1.140625 -3.289062 1.238281 -3.148438 1.4375 -3.078125 C 1.632812 -3.003906 1.898438 -2.925781 2.234375 -2.84375 C 2.398438 -2.8125 2.578125 -2.765625 2.765625 -2.703125 C 2.953125 -2.640625 3.132812 -2.550781 3.3125 -2.4375 C 3.488281 -2.332031 3.632812 -2.191406 3.75 -2.015625 C 3.863281 -1.835938 3.921875 -1.613281 3.921875 -1.34375 C 3.921875 -0.90625 3.753906 -0.550781 3.421875 -0.28125 C 3.085938 -0.0078125 2.648438 0.125 2.109375 0.125 Z M 2.109375 0.125 "/></g></g></g><g fill="#2c3892" fill-opacity="1"><g transform="translate(92.969998, 117.92893)"><g><path d="M 1.203125 0 C 1.003906 0 0.84375 -0.0546875 0.71875 -0.171875 C 0.601562 -0.296875 0.546875 -0.457031 0.546875 -0.65625 L 0.546875 -4.1875 C 0.546875 -4.375 0.609375 -4.523438 0.734375 -4.640625 C 0.859375 -4.753906 1.003906 -4.8125 1.171875 -4.8125 L 2.984375 -4.8125 C 3.117188 -4.8125 3.21875 -4.773438 3.28125 -4.703125 C 3.34375 -4.640625 3.375 -4.554688 3.375 -4.453125 C 3.375 -4.359375 3.335938 -4.273438 3.265625 -4.203125 C 3.203125 -4.128906 3.109375 -4.09375 2.984375 -4.09375 L 1.703125 -4.09375 C 1.492188 -4.09375 1.390625 -3.988281 1.390625 -3.78125 L 1.390625 -3.125 C 1.390625 -2.914062 1.484375 -2.8125 1.671875 -2.8125 L 2.859375 -2.8125 C 3.003906 -2.8125 3.101562 -2.773438 3.15625 -2.703125 C 3.21875 -2.628906 3.25 -2.546875 3.25 -2.453125 C 3.25 -2.359375 3.210938 -2.269531 3.140625 -2.1875 C 3.078125 -2.113281 2.984375 -2.078125 2.859375 -2.078125 L 1.671875 -2.078125 C 1.484375 -2.078125 1.390625 -1.976562 1.390625 -1.78125 L 1.390625 -1.046875 C 1.390625 -0.835938 1.488281 -0.734375 1.6875 -0.734375 L 3.109375 -0.734375 C 3.242188 -0.734375 3.34375 -0.691406 3.40625 -0.609375 C 3.46875 -0.535156 3.5 -0.453125 3.5 -0.359375 C 3.5 -0.265625 3.460938 -0.179688 3.390625 -0.109375 C 3.316406 -0.0351562 3.222656 0 3.109375 0 Z M 1.203125 0 "/></g></g></g><g fill="#2c3892" fill-opacity="1"><g transform="translate(101.559281, 117.92893)"><g><path d="M 0.640625 0.125 C 0.535156 0.125 0.441406 0.0859375 0.359375 0.015625 C 0.273438 -0.0546875 0.234375 -0.15625 0.234375 -0.28125 C 0.234375 -0.320312 0.242188 -0.375 0.265625 -0.4375 L 1.765625 -4.515625 C 1.828125 -4.648438 1.910156 -4.753906 2.015625 -4.828125 C 2.128906 -4.898438 2.253906 -4.9375 2.390625 -4.9375 C 2.515625 -4.9375 2.632812 -4.898438 2.75 -4.828125 C 2.863281 -4.753906 2.953125 -4.648438 3.015625 -4.515625 L 4.609375 -0.4375 C 4.628906 -0.375 4.640625 -0.320312 4.640625 -0.28125 C 4.640625 -0.15625 4.597656 -0.0546875 4.515625 0.015625 C 4.429688 0.0859375 4.335938 0.125 4.234375 0.125 C 4.160156 0.125 4.085938 0.101562 4.015625 0.0625 C 3.941406 0.03125 3.882812 -0.0234375 3.84375 -0.109375 L 3.453125 -1.171875 C 3.441406 -1.210938 3.40625 -1.234375 3.34375 -1.234375 L 1.5 -1.234375 C 1.445312 -1.234375 1.410156 -1.210938 1.390625 -1.171875 L 1.03125 -0.109375 C 0.988281 -0.0234375 0.929688 0.03125 0.859375 0.0625 C 0.785156 0.101562 0.710938 0.125 0.640625 0.125 Z M 1.875 -1.96875 L 2.953125 -1.96875 C 3.003906 -1.96875 3.039062 -1.984375 3.0625 -2.015625 C 3.09375 -2.054688 3.097656 -2.101562 3.078125 -2.15625 L 2.5 -3.8125 C 2.476562 -3.882812 2.441406 -3.921875 2.390625 -3.921875 C 2.335938 -3.921875 2.300781 -3.882812 2.28125 -3.8125 L 1.734375 -2.140625 C 1.710938 -2.097656 1.71875 -2.054688 1.75 -2.015625 C 1.78125 -1.984375 1.820312 -1.96875 1.875 -1.96875 Z M 1.875 -1.96875 "/></g></g></g><g fill="#2c3892" fill-opacity="1"><g transform="translate(111.172531, 117.92893)"><g><path d="M 0.953125 0.125 C 0.847656 0.125 0.753906 0.0820312 0.671875 0 C 0.585938 -0.0703125 0.546875 -0.160156 0.546875 -0.265625 L 0.546875 -4.15625 C 0.546875 -4.375 0.617188 -4.535156 0.765625 -4.640625 C 0.910156 -4.753906 1.066406 -4.8125 1.234375 -4.8125 L 2.421875 -4.8125 C 2.691406 -4.8125 2.945312 -4.753906 3.1875 -4.640625 C 3.425781 -4.523438 3.613281 -4.359375 3.75 -4.140625 C 3.894531 -3.929688 3.96875 -3.679688 3.96875 -3.390625 C 3.96875 -3.109375 3.882812 -2.835938 3.71875 -2.578125 C 3.5625 -2.328125 3.351562 -2.160156 3.09375 -2.078125 C 3.207031 -2.023438 3.3125 -1.941406 3.40625 -1.828125 C 3.507812 -1.722656 3.601562 -1.582031 3.6875 -1.40625 L 4.125 -0.4375 C 4.144531 -0.382812 4.15625 -0.332031 4.15625 -0.28125 C 4.15625 -0.132812 4.109375 -0.03125 4.015625 0.03125 C 3.921875 0.09375 3.828125 0.125 3.734375 0.125 C 3.578125 0.125 3.460938 0.0507812 3.390625 -0.09375 L 2.90625 -1.25 C 2.800781 -1.488281 2.664062 -1.648438 2.5 -1.734375 C 2.34375 -1.828125 2.164062 -1.875 1.96875 -1.875 L 1.671875 -1.875 C 1.460938 -1.875 1.359375 -1.75 1.359375 -1.5 L 1.359375 -0.265625 C 1.359375 -0.160156 1.316406 -0.0703125 1.234375 0 C 1.160156 0.0820312 1.066406 0.125 0.953125 0.125 Z M 1.625 -2.59375 L 2.296875 -2.59375 C 2.503906 -2.59375 2.703125 -2.65625 2.890625 -2.78125 C 3.078125 -2.914062 3.171875 -3.109375 3.171875 -3.359375 C 3.171875 -3.597656 3.082031 -3.773438 2.90625 -3.890625 C 2.738281 -4.015625 2.550781 -4.078125 2.34375 -4.078125 L 1.65625 -4.078125 C 1.457031 -4.078125 1.359375 -3.976562 1.359375 -3.78125 L 1.359375 -2.859375 C 1.359375 -2.679688 1.445312 -2.59375 1.625 -2.59375 Z M 1.625 -2.59375 "/></g></g></g><g fill="#2c3892" fill-opacity="1"><g transform="translate(120.303916, 117.92893)"><g><path d="M 4.25 -0.265625 C 4.113281 -0.160156 3.898438 -0.0703125 3.609375 0 C 3.328125 0.0820312 3.046875 0.125 2.765625 0.125 C 2.296875 0.125 1.875 0.015625 1.5 -0.203125 C 1.132812 -0.421875 0.84375 -0.722656 0.625 -1.109375 C 0.40625 -1.492188 0.296875 -1.9375 0.296875 -2.4375 C 0.296875 -2.925781 0.398438 -3.359375 0.609375 -3.734375 C 0.816406 -4.109375 1.113281 -4.398438 1.5 -4.609375 C 1.882812 -4.828125 2.328125 -4.9375 2.828125 -4.9375 C 3.023438 -4.9375 3.222656 -4.921875 3.421875 -4.890625 C 3.617188 -4.859375 3.820312 -4.800781 4.03125 -4.71875 C 4.101562 -4.675781 4.15625 -4.617188 4.1875 -4.546875 C 4.226562 -4.484375 4.25 -4.421875 4.25 -4.359375 C 4.25 -4.253906 4.210938 -4.160156 4.140625 -4.078125 C 4.078125 -4.003906 3.988281 -3.96875 3.875 -3.96875 C 3.832031 -3.96875 3.773438 -3.976562 3.703125 -4 C 3.578125 -4.050781 3.425781 -4.09375 3.25 -4.125 C 3.082031 -4.164062 2.914062 -4.1875 2.75 -4.1875 C 2.425781 -4.1875 2.144531 -4.101562 1.90625 -3.9375 C 1.664062 -3.78125 1.476562 -3.5625 1.34375 -3.28125 C 1.207031 -3.007812 1.140625 -2.710938 1.140625 -2.390625 C 1.140625 -1.898438 1.285156 -1.476562 1.578125 -1.125 C 1.878906 -0.78125 2.273438 -0.609375 2.765625 -0.609375 C 2.984375 -0.609375 3.195312 -0.640625 3.40625 -0.703125 C 3.613281 -0.773438 3.769531 -0.851562 3.875 -0.9375 C 3.96875 -0.988281 4.046875 -1.015625 4.109375 -1.015625 C 4.210938 -1.015625 4.296875 -0.972656 4.359375 -0.890625 C 4.421875 -0.816406 4.453125 -0.734375 4.453125 -0.640625 C 4.453125 -0.492188 4.382812 -0.367188 4.25 -0.265625 Z M 4.25 -0.265625 "/></g></g></g><g fill="#2c3892" fill-opacity="1"><g transform="translate(129.736464, 117.92893)"><g><path d="M 0.96875 0.125 C 0.84375 0.125 0.738281 0.0859375 0.65625 0.015625 C 0.582031 -0.0546875 0.546875 -0.148438 0.546875 -0.265625 L 0.546875 -4.484375 C 0.546875 -4.597656 0.582031 -4.691406 0.65625 -4.765625 C 0.738281 -4.835938 0.84375 -4.875 0.96875 -4.875 C 1.09375 -4.875 1.191406 -4.835938 1.265625 -4.765625 C 1.347656 -4.691406 1.390625 -4.597656 1.390625 -4.484375 L 1.390625 -3.265625 C 1.390625 -3.023438 1.5 -2.90625 1.71875 -2.90625 L 3.453125 -2.90625 C 3.679688 -2.90625 3.796875 -3.023438 3.796875 -3.265625 L 3.796875 -4.484375 C 3.796875 -4.597656 3.832031 -4.691406 3.90625 -4.765625 C 3.988281 -4.835938 4.09375 -4.875 4.21875 -4.875 C 4.34375 -4.875 4.441406 -4.835938 4.515625 -4.765625 C 4.597656 -4.691406 4.640625 -4.597656 4.640625 -4.484375 L 4.640625 -0.265625 C 4.640625 -0.148438 4.597656 -0.0546875 4.515625 0.015625 C 4.441406 0.0859375 4.34375 0.125 4.21875 0.125 C 4.09375 0.125 3.988281 0.0859375 3.90625 0.015625 C 3.832031 -0.0546875 3.796875 -0.148438 3.796875 -0.265625 L 3.796875 -1.796875 C 3.796875 -2.035156 3.679688 -2.15625 3.453125 -2.15625 L 1.71875 -2.15625 C 1.5 -2.15625 1.390625 -2.035156 1.390625 -1.796875 L 1.390625 -0.265625 C 1.390625 -0.148438 1.347656 -0.0546875 1.265625 0.015625 C 1.191406 0.0859375 1.09375 0.125 0.96875 0.125 Z M 0.96875 0.125 "/></g></g></g><g fill="#2c3892" fill-opacity="1"><g transform="translate(139.65089, 117.92893)"><g><path d="M 1.21875 0.1875 C 1.0625 0.1875 0.925781 0.132812 0.8125 0.03125 C 0.707031 -0.0703125 0.65625 -0.191406 0.65625 -0.328125 C 0.65625 -0.472656 0.707031 -0.59375 0.8125 -0.6875 C 0.925781 -0.789062 1.0625 -0.84375 1.21875 -0.84375 C 1.363281 -0.84375 1.488281 -0.789062 1.59375 -0.6875 C 1.695312 -0.59375 1.75 -0.472656 1.75 -0.328125 C 1.75 -0.191406 1.695312 -0.0703125 1.59375 0.03125 C 1.488281 0.132812 1.363281 0.1875 1.21875 0.1875 Z M 1.21875 0.1875 "/></g></g></g><g fill="#2c3892" fill-opacity="1"><g transform="translate(146.794576, 117.92893)"><g/></g></g><g fill="#2c3892" fill-opacity="1"><g transform="translate(153.938262, 117.92893)"><g><path d="M 4.25 -0.265625 C 4.113281 -0.160156 3.898438 -0.0703125 3.609375 0 C 3.328125 0.0820312 3.046875 0.125 2.765625 0.125 C 2.296875 0.125 1.875 0.015625 1.5 -0.203125 C 1.132812 -0.421875 0.84375 -0.722656 0.625 -1.109375 C 0.40625 -1.492188 0.296875 -1.9375 0.296875 -2.4375 C 0.296875 -2.925781 0.398438 -3.359375 0.609375 -3.734375 C 0.816406 -4.109375 1.113281 -4.398438 1.5 -4.609375 C 1.882812 -4.828125 2.328125 -4.9375 2.828125 -4.9375 C 3.023438 -4.9375 3.222656 -4.921875 3.421875 -4.890625 C 3.617188 -4.859375 3.820312 -4.800781 4.03125 -4.71875 C 4.101562 -4.675781 4.15625 -4.617188 4.1875 -4.546875 C 4.226562 -4.484375 4.25 -4.421875 4.25 -4.359375 C 4.25 -4.253906 4.210938 -4.160156 4.140625 -4.078125 C 4.078125 -4.003906 3.988281 -3.96875 3.875 -3.96875 C 3.832031 -3.96875 3.773438 -3.976562 3.703125 -4 C 3.578125 -4.050781 3.425781 -4.09375 3.25 -4.125 C 3.082031 -4.164062 2.914062 -4.1875 2.75 -4.1875 C 2.425781 -4.1875 2.144531 -4.101562 1.90625 -3.9375 C 1.664062 -3.78125 1.476562 -3.5625 1.34375 -3.28125 C 1.207031 -3.007812 1.140625 -2.710938 1.140625 -2.390625 C 1.140625 -1.898438 1.285156 -1.476562 1.578125 -1.125 C 1.878906 -0.78125 2.273438 -0.609375 2.765625 -0.609375 C 2.984375 -0.609375 3.195312 -0.640625 3.40625 -0.703125 C 3.613281 -0.773438 3.769531 -0.851562 3.875 -0.9375 C 3.96875 -0.988281 4.046875 -1.015625 4.109375 -1.015625 C 4.210938 -1.015625 4.296875 -0.972656 4.359375 -0.890625 C 4.421875 -0.816406 4.453125 -0.734375 4.453125 -0.640625 C 4.453125 -0.492188 4.382812 -0.367188 4.25 -0.265625 Z M 4.25 -0.265625 "/></g></g></g><g fill="#2c3892" fill-opacity="1"><g transform="translate(163.37081, 117.92893)"><g><path d="M 2.8125 0.125 C 2.351562 0.125 1.929688 0.015625 1.546875 -0.203125 C 1.160156 -0.429688 0.851562 -0.734375 0.625 -1.109375 C 0.40625 -1.492188 0.296875 -1.925781 0.296875 -2.40625 C 0.296875 -2.914062 0.40625 -3.359375 0.625 -3.734375 C 0.851562 -4.109375 1.160156 -4.398438 1.546875 -4.609375 C 1.929688 -4.828125 2.351562 -4.9375 2.8125 -4.9375 C 3.28125 -4.9375 3.703125 -4.828125 4.078125 -4.609375 C 4.453125 -4.398438 4.75 -4.109375 4.96875 -3.734375 C 5.1875 -3.359375 5.296875 -2.914062 5.296875 -2.40625 C 5.296875 -1.925781 5.1875 -1.492188 4.96875 -1.109375 C 4.75 -0.734375 4.453125 -0.429688 4.078125 -0.203125 C 3.703125 0.015625 3.28125 0.125 2.8125 0.125 Z M 2.8125 -0.609375 C 3.132812 -0.609375 3.414062 -0.691406 3.65625 -0.859375 C 3.90625 -1.023438 4.097656 -1.242188 4.234375 -1.515625 C 4.367188 -1.785156 4.4375 -2.082031 4.4375 -2.40625 C 4.4375 -2.925781 4.285156 -3.351562 3.984375 -3.6875 C 3.679688 -4.019531 3.289062 -4.1875 2.8125 -4.1875 C 2.332031 -4.1875 1.941406 -4.019531 1.640625 -3.6875 C 1.335938 -3.351562 1.1875 -2.925781 1.1875 -2.40625 C 1.1875 -2.082031 1.253906 -1.785156 1.390625 -1.515625 C 1.523438 -1.242188 1.71875 -1.023438 1.96875 -0.859375 C 2.21875 -0.691406 2.5 -0.609375 2.8125 -0.609375 Z M 2.8125 -0.609375 "/></g></g></g><g fill="#2c3892" fill-opacity="1"><g transform="translate(173.706867, 117.92893)"><g><path d="M 0.96875 0.125 C 0.863281 0.125 0.765625 0.0859375 0.671875 0.015625 C 0.585938 -0.046875 0.546875 -0.140625 0.546875 -0.265625 L 0.546875 -4.328125 C 0.546875 -4.515625 0.601562 -4.648438 0.71875 -4.734375 C 0.832031 -4.828125 0.957031 -4.875 1.09375 -4.875 C 1.300781 -4.875 1.453125 -4.796875 1.546875 -4.640625 L 3.546875 -1.515625 C 3.585938 -1.453125 3.628906 -1.421875 3.671875 -1.421875 C 3.742188 -1.421875 3.78125 -1.476562 3.78125 -1.59375 L 3.734375 -4.5 C 3.734375 -4.625 3.773438 -4.71875 3.859375 -4.78125 C 3.953125 -4.84375 4.050781 -4.875 4.15625 -4.875 C 4.257812 -4.875 4.351562 -4.84375 4.4375 -4.78125 C 4.53125 -4.71875 4.578125 -4.625 4.578125 -4.5 L 4.578125 -0.40625 C 4.578125 -0.226562 4.523438 -0.09375 4.421875 0 C 4.316406 0.0820312 4.195312 0.125 4.0625 0.125 C 3.96875 0.125 3.875 0.0976562 3.78125 0.046875 C 3.6875 0.00390625 3.609375 -0.0625 3.546875 -0.15625 L 1.59375 -3.1875 C 1.550781 -3.25 1.503906 -3.28125 1.453125 -3.28125 C 1.378906 -3.28125 1.34375 -3.226562 1.34375 -3.125 L 1.390625 -0.265625 C 1.390625 -0.140625 1.34375 -0.046875 1.25 0.015625 C 1.164062 0.0859375 1.070312 0.125 0.96875 0.125 Z M 0.96875 0.125 "/></g></g></g><g fill="#2c3892" fill-opacity="1"><g transform="translate(183.561058, 117.92893)"><g><path d="M 0.96875 0.125 C 0.863281 0.125 0.765625 0.0859375 0.671875 0.015625 C 0.585938 -0.046875 0.546875 -0.140625 0.546875 -0.265625 L 0.546875 -4.328125 C 0.546875 -4.515625 0.601562 -4.648438 0.71875 -4.734375 C 0.832031 -4.828125 0.957031 -4.875 1.09375 -4.875 C 1.300781 -4.875 1.453125 -4.796875 1.546875 -4.640625 L 3.546875 -1.515625 C 3.585938 -1.453125 3.628906 -1.421875 3.671875 -1.421875 C 3.742188 -1.421875 3.78125 -1.476562 3.78125 -1.59375 L 3.734375 -4.5 C 3.734375 -4.625 3.773438 -4.71875 3.859375 -4.78125 C 3.953125 -4.84375 4.050781 -4.875 4.15625 -4.875 C 4.257812 -4.875 4.351562 -4.84375 4.4375 -4.78125 C 4.53125 -4.71875 4.578125 -4.625 4.578125 -4.5 L 4.578125 -0.40625 C 4.578125 -0.226562 4.523438 -0.09375 4.421875 0 C 4.316406 0.0820312 4.195312 0.125 4.0625 0.125 C 3.96875 0.125 3.875 0.0976562 3.78125 0.046875 C 3.6875 0.00390625 3.609375 -0.0625 3.546875 -0.15625 L 1.59375 -3.1875 C 1.550781 -3.25 1.503906 -3.28125 1.453125 -3.28125 C 1.378906 -3.28125 1.34375 -3.226562 1.34375 -3.125 L 1.390625 -0.265625 C 1.390625 -0.140625 1.34375 -0.046875 1.25 0.015625 C 1.164062 0.0859375 1.070312 0.125 0.96875 0.125 Z M 0.96875 0.125 "/></g></g></g><g fill="#2c3892" fill-opacity="1"><g transform="translate(193.415244, 117.92893)"><g><path d="M 1.203125 0 C 1.003906 0 0.84375 -0.0546875 0.71875 -0.171875 C 0.601562 -0.296875 0.546875 -0.457031 0.546875 -0.65625 L 0.546875 -4.1875 C 0.546875 -4.375 0.609375 -4.523438 0.734375 -4.640625 C 0.859375 -4.753906 1.003906 -4.8125 1.171875 -4.8125 L 2.984375 -4.8125 C 3.117188 -4.8125 3.21875 -4.773438 3.28125 -4.703125 C 3.34375 -4.640625 3.375 -4.554688 3.375 -4.453125 C 3.375 -4.359375 3.335938 -4.273438 3.265625 -4.203125 C 3.203125 -4.128906 3.109375 -4.09375 2.984375 -4.09375 L 1.703125 -4.09375 C 1.492188 -4.09375 1.390625 -3.988281 1.390625 -3.78125 L 1.390625 -3.125 C 1.390625 -2.914062 1.484375 -2.8125 1.671875 -2.8125 L 2.859375 -2.8125 C 3.003906 -2.8125 3.101562 -2.773438 3.15625 -2.703125 C 3.21875 -2.628906 3.25 -2.546875 3.25 -2.453125 C 3.25 -2.359375 3.210938 -2.269531 3.140625 -2.1875 C 3.078125 -2.113281 2.984375 -2.078125 2.859375 -2.078125 L 1.671875 -2.078125 C 1.484375 -2.078125 1.390625 -1.976562 1.390625 -1.78125 L 1.390625 -1.046875 C 1.390625 -0.835938 1.488281 -0.734375 1.6875 -0.734375 L 3.109375 -0.734375 C 3.242188 -0.734375 3.34375 -0.691406 3.40625 -0.609375 C 3.46875 -0.535156 3.5 -0.453125 3.5 -0.359375 C 3.5 -0.265625 3.460938 -0.179688 3.390625 -0.109375 C 3.316406 -0.0351562 3.222656 0 3.109375 0 Z M 1.203125 0 "/></g></g></g><g fill="#2c3892" fill-opacity="1"><g transform="translate(202.004523, 117.92893)"><g><path d="M 4.25 -0.265625 C 4.113281 -0.160156 3.898438 -0.0703125 3.609375 0 C 3.328125 0.0820312 3.046875 0.125 2.765625 0.125 C 2.296875 0.125 1.875 0.015625 1.5 -0.203125 C 1.132812 -0.421875 0.84375 -0.722656 0.625 -1.109375 C 0.40625 -1.492188 0.296875 -1.9375 0.296875 -2.4375 C 0.296875 -2.925781 0.398438 -3.359375 0.609375 -3.734375 C 0.816406 -4.109375 1.113281 -4.398438 1.5 -4.609375 C 1.882812 -4.828125 2.328125 -4.9375 2.828125 -4.9375 C 3.023438 -4.9375 3.222656 -4.921875 3.421875 -4.890625 C 3.617188 -4.859375 3.820312 -4.800781 4.03125 -4.71875 C 4.101562 -4.675781 4.15625 -4.617188 4.1875 -4.546875 C 4.226562 -4.484375 4.25 -4.421875 4.25 -4.359375 C 4.25 -4.253906 4.210938 -4.160156 4.140625 -4.078125 C 4.078125 -4.003906 3.988281 -3.96875 3.875 -3.96875 C 3.832031 -3.96875 3.773438 -3.976562 3.703125 -4 C 3.578125 -4.050781 3.425781 -4.09375 3.25 -4.125 C 3.082031 -4.164062 2.914062 -4.1875 2.75 -4.1875 C 2.425781 -4.1875 2.144531 -4.101562 1.90625 -3.9375 C 1.664062 -3.78125 1.476562 -3.5625 1.34375 -3.28125 C 1.207031 -3.007812 1.140625 -2.710938 1.140625 -2.390625 C 1.140625 -1.898438 1.285156 -1.476562 1.578125 -1.125 C 1.878906 -0.78125 2.273438 -0.609375 2.765625 -0.609375 C 2.984375 -0.609375 3.195312 -0.640625 3.40625 -0.703125 C 3.613281 -0.773438 3.769531 -0.851562 3.875 -0.9375 C 3.96875 -0.988281 4.046875 -1.015625 4.109375 -1.015625 C 4.210938 -1.015625 4.296875 -0.972656 4.359375 -0.890625 C 4.421875 -0.816406 4.453125 -0.734375 4.453125 -0.640625 C 4.453125 -0.492188 4.382812 -0.367188 4.25 -0.265625 Z M 4.25 -0.265625 "/></g></g></g><g fill="#2c3892" fill-opacity="1"><g transform="translate(211.437065, 117.92893)"><g><path d="M 1.984375 0.125 C 1.859375 0.125 1.753906 0.0859375 1.671875 0.015625 C 1.597656 -0.0546875 1.5625 -0.148438 1.5625 -0.265625 L 1.5625 -3.765625 C 1.5625 -3.972656 1.457031 -4.078125 1.25 -4.078125 L 0.5 -4.078125 C 0.25 -4.078125 0.125 -4.195312 0.125 -4.4375 C 0.125 -4.6875 0.25 -4.8125 0.5 -4.8125 L 3.46875 -4.8125 C 3.582031 -4.8125 3.675781 -4.773438 3.75 -4.703125 C 3.820312 -4.640625 3.859375 -4.550781 3.859375 -4.4375 C 3.859375 -4.332031 3.820312 -4.242188 3.75 -4.171875 C 3.675781 -4.109375 3.582031 -4.078125 3.46875 -4.078125 L 2.71875 -4.078125 C 2.507812 -4.078125 2.40625 -3.972656 2.40625 -3.765625 L 2.40625 -0.265625 C 2.40625 -0.148438 2.367188 -0.0546875 2.296875 0.015625 C 2.222656 0.0859375 2.117188 0.125 1.984375 0.125 Z M 1.984375 0.125 "/></g></g></g><g fill="#2c3892" fill-opacity="1"><g transform="translate(220.146814, 117.92893)"><g><path d="M 1.21875 0.1875 C 1.0625 0.1875 0.925781 0.132812 0.8125 0.03125 C 0.707031 -0.0703125 0.65625 -0.191406 0.65625 -0.328125 C 0.65625 -0.472656 0.707031 -0.59375 0.8125 -0.6875 C 0.925781 -0.789062 1.0625 -0.84375 1.21875 -0.84375 C 1.363281 -0.84375 1.488281 -0.789062 1.59375 -0.6875 C 1.695312 -0.59375 1.75 -0.472656 1.75 -0.328125 C 1.75 -0.191406 1.695312 -0.0703125 1.59375 0.03125 C 1.488281 0.132812 1.363281 0.1875 1.21875 0.1875 Z M 1.21875 0.1875 "/></g></g></g><g fill="#2c3892" fill-opacity="1"><g transform="translate(227.290494, 117.92893)"><g/></g></g><g fill="#2c3892" fill-opacity="1"><g transform="translate(234.434174, 117.92893)"><g><path d="M 1.203125 0 C 1.003906 0 0.84375 -0.0546875 0.71875 -0.171875 C 0.601562 -0.296875 0.546875 -0.457031 0.546875 -0.65625 L 0.546875 -4.1875 C 0.546875 -4.375 0.609375 -4.523438 0.734375 -4.640625 C 0.859375 -4.753906 1.003906 -4.8125 1.171875 -4.8125 L 2.984375 -4.8125 C 3.117188 -4.8125 3.21875 -4.773438 3.28125 -4.703125 C 3.34375 -4.640625 3.375 -4.554688 3.375 -4.453125 C 3.375 -4.359375 3.335938 -4.273438 3.265625 -4.203125 C 3.203125 -4.128906 3.109375 -4.09375 2.984375 -4.09375 L 1.703125 -4.09375 C 1.492188 -4.09375 1.390625 -3.988281 1.390625 -3.78125 L 1.390625 -3.125 C 1.390625 -2.914062 1.484375 -2.8125 1.671875 -2.8125 L 2.859375 -2.8125 C 3.003906 -2.8125 3.101562 -2.773438 3.15625 -2.703125 C 3.21875 -2.628906 3.25 -2.546875 3.25 -2.453125 C 3.25 -2.359375 3.210938 -2.269531 3.140625 -2.1875 C 3.078125 -2.113281 2.984375 -2.078125 2.859375 -2.078125 L 1.671875 -2.078125 C 1.484375 -2.078125 1.390625 -1.976562 1.390625 -1.78125 L 1.390625 -1.046875 C 1.390625 -0.835938 1.488281 -0.734375 1.6875 -0.734375 L 3.109375 -0.734375 C 3.242188 -0.734375 3.34375 -0.691406 3.40625 -0.609375 C 3.46875 -0.535156 3.5 -0.453125 3.5 -0.359375 C 3.5 -0.265625 3.460938 -0.179688 3.390625 -0.109375 C 3.316406 -0.0351562 3.222656 0 3.109375 0 Z M 1.203125 0 "/></g></g></g><g fill="#2c3892" fill-opacity="1"><g transform="translate(243.023453, 117.92893)"><g><path d="M 0.96875 0.125 C 0.863281 0.125 0.765625 0.0859375 0.671875 0.015625 C 0.585938 -0.046875 0.546875 -0.140625 0.546875 -0.265625 L 0.546875 -4.328125 C 0.546875 -4.515625 0.601562 -4.648438 0.71875 -4.734375 C 0.832031 -4.828125 0.957031 -4.875 1.09375 -4.875 C 1.300781 -4.875 1.453125 -4.796875 1.546875 -4.640625 L 3.546875 -1.515625 C 3.585938 -1.453125 3.628906 -1.421875 3.671875 -1.421875 C 3.742188 -1.421875 3.78125 -1.476562 3.78125 -1.59375 L 3.734375 -4.5 C 3.734375 -4.625 3.773438 -4.71875 3.859375 -4.78125 C 3.953125 -4.84375 4.050781 -4.875 4.15625 -4.875 C 4.257812 -4.875 4.351562 -4.84375 4.4375 -4.78125 C 4.53125 -4.71875 4.578125 -4.625 4.578125 -4.5 L 4.578125 -0.40625 C 4.578125 -0.226562 4.523438 -0.09375 4.421875 0 C 4.316406 0.0820312 4.195312 0.125 4.0625 0.125 C 3.96875 0.125 3.875 0.0976562 3.78125 0.046875 C 3.6875 0.00390625 3.609375 -0.0625 3.546875 -0.15625 L 1.59375 -3.1875 C 1.550781 -3.25 1.503906 -3.28125 1.453125 -3.28125 C 1.378906 -3.28125 1.34375 -3.226562 1.34375 -3.125 L 1.390625 -0.265625 C 1.390625 -0.140625 1.34375 -0.046875 1.25 0.015625 C 1.164062 0.0859375 1.070312 0.125 0.96875 0.125 Z M 0.96875 0.125 "/></g></g></g><g fill="#2c3892" fill-opacity="1"><g transform="translate(252.877638, 117.92893)"><g><path d="M 0.640625 0.125 C 0.535156 0.125 0.441406 0.0859375 0.359375 0.015625 C 0.273438 -0.0546875 0.234375 -0.15625 0.234375 -0.28125 C 0.234375 -0.320312 0.242188 -0.375 0.265625 -0.4375 L 1.765625 -4.515625 C 1.828125 -4.648438 1.910156 -4.753906 2.015625 -4.828125 C 2.128906 -4.898438 2.253906 -4.9375 2.390625 -4.9375 C 2.515625 -4.9375 2.632812 -4.898438 2.75 -4.828125 C 2.863281 -4.753906 2.953125 -4.648438 3.015625 -4.515625 L 4.609375 -0.4375 C 4.628906 -0.375 4.640625 -0.320312 4.640625 -0.28125 C 4.640625 -0.15625 4.597656 -0.0546875 4.515625 0.015625 C 4.429688 0.0859375 4.335938 0.125 4.234375 0.125 C 4.160156 0.125 4.085938 0.101562 4.015625 0.0625 C 3.941406 0.03125 3.882812 -0.0234375 3.84375 -0.109375 L 3.453125 -1.171875 C 3.441406 -1.210938 3.40625 -1.234375 3.34375 -1.234375 L 1.5 -1.234375 C 1.445312 -1.234375 1.410156 -1.210938 1.390625 -1.171875 L 1.03125 -0.109375 C 0.988281 -0.0234375 0.929688 0.03125 0.859375 0.0625 C 0.785156 0.101562 0.710938 0.125 0.640625 0.125 Z M 1.875 -1.96875 L 2.953125 -1.96875 C 3.003906 -1.96875 3.039062 -1.984375 3.0625 -2.015625 C 3.09375 -2.054688 3.097656 -2.101562 3.078125 -2.15625 L 2.5 -3.8125 C 2.476562 -3.882812 2.441406 -3.921875 2.390625 -3.921875 C 2.335938 -3.921875 2.300781 -3.882812 2.28125 -3.8125 L 1.734375 -2.140625 C 1.710938 -2.097656 1.71875 -2.054688 1.75 -2.015625 C 1.78125 -1.984375 1.820312 -1.96875 1.875 -1.96875 Z M 1.875 -1.96875 "/></g></g></g><g fill="#2c3892" fill-opacity="1"><g transform="translate(262.490885, 117.92893)"><g><path d="M 1.203125 0 C 1.035156 0 0.882812 -0.0546875 0.75 -0.171875 C 0.613281 -0.285156 0.546875 -0.445312 0.546875 -0.65625 L 0.546875 -4.1875 C 0.546875 -4.375 0.609375 -4.523438 0.734375 -4.640625 C 0.859375 -4.753906 1.003906 -4.8125 1.171875 -4.8125 L 2.296875 -4.8125 C 2.671875 -4.8125 3.003906 -4.707031 3.296875 -4.5 C 3.585938 -4.300781 3.734375 -4.015625 3.734375 -3.640625 C 3.734375 -3.441406 3.691406 -3.253906 3.609375 -3.078125 C 3.523438 -2.898438 3.414062 -2.769531 3.28125 -2.6875 C 3.507812 -2.601562 3.691406 -2.453125 3.828125 -2.234375 C 3.960938 -2.023438 4.03125 -1.78125 4.03125 -1.5 C 4.03125 -1.007812 3.882812 -0.632812 3.59375 -0.375 C 3.3125 -0.125 2.953125 0 2.515625 0 Z M 1.671875 -0.734375 L 2.515625 -0.734375 C 2.773438 -0.734375 2.960938 -0.8125 3.078125 -0.96875 C 3.191406 -1.125 3.25 -1.296875 3.25 -1.484375 C 3.25 -1.648438 3.191406 -1.804688 3.078125 -1.953125 C 2.972656 -2.109375 2.800781 -2.1875 2.5625 -2.1875 L 1.625 -2.1875 C 1.445312 -2.1875 1.359375 -2.097656 1.359375 -1.921875 L 1.359375 -1.046875 C 1.359375 -0.835938 1.460938 -0.734375 1.671875 -0.734375 Z M 1.625 -2.859375 L 2.328125 -2.859375 C 2.523438 -2.859375 2.675781 -2.925781 2.78125 -3.0625 C 2.882812 -3.207031 2.9375 -3.351562 2.9375 -3.5 C 2.9375 -3.644531 2.882812 -3.78125 2.78125 -3.90625 C 2.6875 -4.03125 2.535156 -4.09375 2.328125 -4.09375 L 1.6875 -4.09375 C 1.46875 -4.09375 1.359375 -3.988281 1.359375 -3.78125 L 1.359375 -3.140625 C 1.359375 -2.953125 1.445312 -2.859375 1.625 -2.859375 Z M 1.625 -2.859375 "/></g></g></g><g fill="#2c3892" fill-opacity="1"><g transform="translate(271.56203, 117.92893)"><g><path d="M 1.203125 0 C 1.003906 0 0.84375 -0.0546875 0.71875 -0.171875 C 0.601562 -0.296875 0.546875 -0.457031 0.546875 -0.65625 L 0.546875 -4.484375 C 0.546875 -4.617188 0.585938 -4.71875 0.671875 -4.78125 C 0.765625 -4.84375 0.863281 -4.875 0.96875 -4.875 C 1.070312 -4.875 1.164062 -4.84375 1.25 -4.78125 C 1.34375 -4.71875 1.390625 -4.617188 1.390625 -4.484375 L 1.390625 -1.0625 C 1.390625 -0.9375 1.410156 -0.851562 1.453125 -0.8125 C 1.503906 -0.769531 1.585938 -0.75 1.703125 -0.75 L 2.9375 -0.75 C 3.0625 -0.75 3.15625 -0.707031 3.21875 -0.625 C 3.28125 -0.539062 3.3125 -0.457031 3.3125 -0.375 C 3.3125 -0.28125 3.28125 -0.191406 3.21875 -0.109375 C 3.15625 -0.0351562 3.0625 0 2.9375 0 Z M 1.203125 0 "/></g></g></g><g fill="#2c3892" fill-opacity="1"><g transform="translate(279.970617, 117.92893)"><g><path d="M 1.203125 0 C 1.003906 0 0.84375 -0.0546875 0.71875 -0.171875 C 0.601562 -0.296875 0.546875 -0.457031 0.546875 -0.65625 L 0.546875 -4.1875 C 0.546875 -4.375 0.609375 -4.523438 0.734375 -4.640625 C 0.859375 -4.753906 1.003906 -4.8125 1.171875 -4.8125 L 2.984375 -4.8125 C 3.117188 -4.8125 3.21875 -4.773438 3.28125 -4.703125 C 3.34375 -4.640625 3.375 -4.554688 3.375 -4.453125 C 3.375 -4.359375 3.335938 -4.273438 3.265625 -4.203125 C 3.203125 -4.128906 3.109375 -4.09375 2.984375 -4.09375 L 1.703125 -4.09375 C 1.492188 -4.09375 1.390625 -3.988281 1.390625 -3.78125 L 1.390625 -3.125 C 1.390625 -2.914062 1.484375 -2.8125 1.671875 -2.8125 L 2.859375 -2.8125 C 3.003906 -2.8125 3.101562 -2.773438 3.15625 -2.703125 C 3.21875 -2.628906 3.25 -2.546875 3.25 -2.453125 C 3.25 -2.359375 3.210938 -2.269531 3.140625 -2.1875 C 3.078125 -2.113281 2.984375 -2.078125 2.859375 -2.078125 L 1.671875 -2.078125 C 1.484375 -2.078125 1.390625 -1.976562 1.390625 -1.78125 L 1.390625 -1.046875 C 1.390625 -0.835938 1.488281 -0.734375 1.6875 -0.734375 L 3.109375 -0.734375 C 3.242188 -0.734375 3.34375 -0.691406 3.40625 -0.609375 C 3.46875 -0.535156 3.5 -0.453125 3.5 -0.359375 C 3.5 -0.265625 3.460938 -0.179688 3.390625 -0.109375 C 3.316406 -0.0351562 3.222656 0 3.109375 0 Z M 1.203125 0 "/></g></g></g><g fill="#2c3892" fill-opacity="1"><g transform="translate(288.559907, 117.92893)"><g><path d="M 1.21875 0.1875 C 1.0625 0.1875 0.925781 0.132812 0.8125 0.03125 C 0.707031 -0.0703125 0.65625 -0.191406 0.65625 -0.328125 C 0.65625 -0.472656 0.707031 -0.59375 0.8125 -0.6875 C 0.925781 -0.789062 1.0625 -0.84375 1.21875 -0.84375 C 1.363281 -0.84375 1.488281 -0.789062 1.59375 -0.6875 C 1.695312 -0.59375 1.75 -0.472656 1.75 -0.328125 C 1.75 -0.191406 1.695312 -0.0703125 1.59375 0.03125 C 1.488281 0.132812 1.363281 0.1875 1.21875 0.1875 Z M 1.21875 0.1875 "/></g></g></g></svg>