<svg xmlns="http://www.w3.org/2000/svg" xmlns:xlink="http://www.w3.org/1999/xlink" width="500" zoomAndPan="magnify" viewBox="0 0 375 374.999991" height="500" preserveAspectRatio="xMidYMid meet" version="1.0"><defs><clipPath id="be8e2a3a37"><path d="M 187.5 0 C 83.945312 0 0 83.945312 0 187.5 C 0 291.054688 83.945312 375 187.5 375 C 291.054688 375 375 291.054688 375 187.5 C 375 83.945312 291.054688 0 187.5 0 Z M 187.5 0 " clip-rule="nonzero"/></clipPath><clipPath id="f6711cb0e0"><path d="M 20 56 L 355 56 L 355 327 L 20 327 Z M 20 56 " clip-rule="nonzero"/></clipPath><clipPath id="02929e85d2"><path d="M 102.082031 12.316406 L 366.011719 109.492188 L 272.722656 362.863281 L 8.792969 265.6875 Z M 102.082031 12.316406 " clip-rule="nonzero"/></clipPath><clipPath id="35b6e8f9e8"><path d="M 366.121094 109.53125 L 102.191406 12.359375 L 8.902344 265.730469 L 272.832031 362.90625 Z M 366.121094 109.53125 " clip-rule="nonzero"/></clipPath></defs><g clip-path="url(#be8e2a3a37)"><rect x="-37.5" width="450" fill="#bc1823" y="-37.499999" height="449.999989" fill-opacity="1"/></g><g clip-path="url(#f6711cb0e0)"><g clip-path="url(#02929e85d2)"><g clip-path="url(#35b6e8f9e8)"><path fill="#fff9f3" d="M 151.175781 232.046875 C 185.9375 222.613281 215.871094 208.789062 245.605469 188.425781 C 261.734375 177.382812 283.25 160.449219 292.746094 142.882812 C 297.226562 134.621094 299.375 124.933594 292.570312 117.25 C 308.113281 119.699219 316.996094 129.496094 316.355469 145.457031 C 315.71875 161.066406 305.066406 179.421875 287.109375 197.308594 C 249.164062 235.089844 184.394531 265.019531 131.007812 269.382812 C 112.359375 270.914062 86.738281 269.882812 71.648438 257.269531 C 59.71875 247.304688 58.617188 234.539062 66.535156 221.625 C 67.949219 231.796875 76.714844 236.445312 85.910156 238.390625 C 105.453125 242.539062 132.289062 237.15625 151.175781 232.046875 Z M 133.792969 175.582031 C 160.472656 169.878906 192.261719 155.207031 213.890625 138.578125 C 224.636719 130.320312 233.101562 121.503906 238.929688 112.484375 C 242.460938 107.015625 243.394531 99.703125 239.914062 93.914062 C 248.929688 97.175781 255.226562 103.273438 254.839844 112.820312 C 254.398438 123.410156 247.128906 135.902344 234.859375 148.148438 C 208.78125 174.117188 164.179688 194.714844 127.484375 197.71875 C 110.203125 199.132812 95.972656 196.574219 87.644531 190.042969 C 80.113281 184.128906 79.558594 175.375 82.9375 166.410156 C 83.96875 172.664062 91.199219 176.84375 97.6875 177.714844 C 108.320312 179.121094 120.523438 178.394531 133.792969 175.582031 Z M 173.332031 111.78125 C 176.796875 114.105469 179.550781 115.960938 180.644531 118.796875 C 184.691406 129.1875 145.585938 147.261719 140.28125 137.4375 C 138.851562 134.757812 139.230469 131.453125 139.691406 127.304688 C 140.472656 120.449219 141.128906 116.144531 136.355469 110.253906 C 133.84375 107.160156 130.226562 104.332031 125.785156 101.574219 C 90.5 79.8125 126.582031 52.972656 148.25 56.3125 C 158.179688 57.835938 165.613281 65.996094 162.769531 84.496094 C 161.96875 89.664062 161.789062 94.269531 162.527344 98.167969 C 163.90625 105.621094 167.601562 107.9375 173.332031 111.78125 Z M 168.152344 100.035156 C 180.871094 95.515625 193.195312 92.628906 204.410156 91.332031 C 213.683594 90.261719 235.160156 87.109375 237.054688 100.359375 C 237.5 103.570312 236.542969 107.089844 234.789062 109.808594 C 228.511719 119.546875 219.703125 127.917969 210.542969 134.925781 C 182.03125 155.011719 162.414062 162.359375 132.777344 170.726562 C 120.046875 173.449219 108.414062 174.152344 98.34375 172.808594 C 90.992188 171.84375 86.15625 166.433594 87.15625 158.890625 C 87.84375 153.8125 100.0625 141.367188 103.96875 137.714844 C 112.230469 130.003906 122.433594 122.503906 134.109375 115.742188 C 135.925781 119.253906 135.296875 122.371094 134.792969 126.730469 C 134.222656 131.742188 133.765625 135.722656 135.941406 139.761719 C 144.273438 155.230469 191.625 133.371094 185.25 116.992188 C 183.585938 112.730469 180.257812 110.476562 176.070312 107.671875 C 172.433594 105.222656 169.640625 103.671875 168.152344 100.035156 Z M 227.539062 305.054688 C 231.933594 304.144531 236.199219 302.914062 240.28125 301.328125 C 240.394531 301.273438 240.492188 301.21875 240.605469 301.164062 C 244.433594 299.09375 248.136719 296.65625 251.65625 293.914062 L 252.195312 293.664062 C 254.136719 298.660156 256.726562 307.414062 256.664062 315.058594 C 256.570312 327.351562 249.8125 330.457031 240.390625 322.574219 C 234.546875 317.671875 229.546875 310.015625 227.011719 305.304688 Z M 297.226562 193.816406 C 295.597656 210.066406 290.347656 228.859375 281.957031 246.304688 C 271.765625 267.539062 256.945312 286.714844 238.347656 296.78125 C 218.648438 304.402344 194.433594 303.265625 171.640625 297.25 C 152.921875 292.320312 135.214844 284.121094 121.78125 274.832031 C 181.066406 273.445312 257.730469 238.003906 297.226562 193.816406 Z M 343.417969 143.25 C 346.589844 109.496094 309.625 96.613281 283.019531 90.839844 C 298.863281 90.539062 316.511719 92.4375 330.441406 97.171875 C 356.820312 106.132812 361.613281 121.777344 343.417969 143.25 Z M 31.578125 231.742188 C 28.410156 265.496094 65.378906 278.363281 91.976562 284.148438 C 76.140625 284.433594 58.484375 282.554688 44.554688 277.820312 C 18.175781 268.859375 13.386719 253.214844 31.578125 231.742188 Z M 149.867188 227.265625 C 131.890625 232.148438 105.578125 237.515625 86.949219 233.5625 C 76.414062 231.328125 65.136719 222.390625 74.078125 211.5625 C 78.800781 205.796875 84.230469 200.242188 88.945312 196.796875 C 98.398438 202 112.011719 203.945312 127.863281 202.65625 C 165.757812 199.550781 211.394531 178.476562 238.332031 151.640625 C 249.609375 140.421875 256.945312 128.777344 259.109375 118.21875 C 264.804688 116.871094 272.554688 116.339844 279.992188 116.464844 C 283.980469 116.546875 284.699219 116.585938 287.824219 119.480469 C 294.328125 125.542969 292.15625 133.625 288.386719 140.542969 C 279.328125 157.28125 258.175781 173.839844 242.8125 184.363281 C 213.335938 204.542969 184.363281 217.914062 149.867188 227.265625 Z M 149.867188 227.265625 " fill-opacity="1" fill-rule="nonzero"/></g></g></g></svg>